<svg xmlns="http://www.w3.org/2000/svg" version="1.1" xmlns:xlink="http://www.w3.org/1999/xlink" xmlns:svgjs="http://svgjs.dev/svgjs" width="1440" height="560" preserveAspectRatio="none" viewBox="0 0 1440 560"><g mask="url(&quot;#SvgjsMask1170&quot;)" fill="none"><rect width="1440" height="560" x="0" y="0" fill="url(&quot;#SvgjsLinearGradient1171&quot;)"></rect><path d="M1440 0L1422.42 0L1440 90.05z" fill="rgba(255, 255, 255, .1)"></path><path d="M1422.42 0L1440 90.05L1440 170.91L1351.49 0z" fill="rgba(255, 255, 255, .075)"></path><path d="M1351.49 0L1440 170.91L1440 182.53L963.84 0z" fill="rgba(255, 255, 255, .05)"></path><path d="M963.84 0L1440 182.53L1440 276.68L941.21 0z" fill="rgba(255, 255, 255, .025)"></path><path d="M0 560L408.28 560L0 520.5z" fill="rgba(0, 0, 0, .1)"></path><path d="M0 520.5L408.28 560L886.8199999999999 560L0 371.68z" fill="rgba(0, 0, 0, .075)"></path><path d="M0 371.68L886.8199999999999 560L1118.76 560L0 362.33z" fill="rgba(0, 0, 0, .05)"></path><path d="M0 362.33000000000004L1118.76 560L1147.23 560L0 227.74000000000004z" fill="rgba(0, 0, 0, .025)"></path></g><defs><mask id="SvgjsMask1170"><rect width="1440" height="560" fill="#ffffff"></rect></mask><linearGradient x1="84.72%" y1="-39.29%" x2="15.28%" y2="139.29%" gradientUnits="userSpaceOnUse" id="SvgjsLinearGradient1171"><stop stop-color="rgba(255, 255, 255, 1)" offset="0.94"></stop><stop stop-color="rgba(253, 252, 252, 1)" offset="0.94"></stop><stop stop-color="rgba(255, 255, 255, 1)" offset="1"></stop></linearGradient></defs></svg>